<svg xmlns="http://www.w3.org/2000/svg" height="92.99" width="150"><path d="M99.037 92.99v-5.952h45.065V5.918h-15.513V0H150v92.99zM50.655 0v5.952H5.9v81.12H21.84v5.918H0V0zm60.831 43.33h-3.44V28.884h3.351v1.928c.95-1.661 2.67-2.344 4.271-2.344 3.53 0 5.222 2.552 5.222 5.726v9.136h-3.441v-8.543c0-1.78-.801-3.204-2.967-3.204-1.958 0-2.996 1.513-2.996 3.411zm-16.403-4.746c.118 1.305 1.097 2.462 2.936 2.462 1.424 0 2.166-.771 2.166-1.661 0-.772-.534-1.365-1.691-1.602l-2.136-.475c-2.551-.564-3.886-2.225-3.886-4.212 0-2.521 2.314-4.657 5.31-4.657 4.034 0 5.34 2.61 5.577 4.034l-2.907.83c-.12-.83-.742-2.165-2.67-2.165-1.216 0-2.077.771-2.077 1.661 0 .772.564 1.335 1.454 1.513l2.195.445c2.73.594 4.153 2.255 4.153 4.39 0 2.196-1.78 4.628-5.458 4.628-4.183 0-5.784-2.729-5.963-4.36zM78.648 43.33h-3.44V28.884h3.351v1.928c.95-1.661 2.67-2.344 4.272-2.344 3.53 0 5.22 2.552 5.22 5.726v9.136h-3.44v-8.543c0-1.78-.8-3.204-2.967-3.204-1.957 0-2.996 1.513-2.996 3.411zM67.821 28.884h2.996v3.055h-2.996v6.704c0 1.276.564 1.81 1.839 1.81a7.33 7.33 0 001.187-.12v2.849c-.208.089-.86.326-2.106.326-2.67 0-4.331-1.602-4.331-4.301v-7.268h-2.67v-3.055h.741c1.543 0 2.225-.98 2.225-2.255v-2.165h3.115zm-17.56 7.149l-5.162-7.15h4.093c.267.446 2.908 4.213 3.174 4.628l3.145-4.627h3.916l-5.073 7.09 5.25 7.356H55.57l-3.352-4.835c-.296.445-2.996 4.39-3.263 4.835H45.01zM39.224 34.52c-.06-1.69-1.187-3.204-3.56-3.204-2.165 0-3.411 1.661-3.53 3.204zm3.293 4.687c-.771 2.521-3.056 4.568-6.526 4.568-3.916 0-7.386-2.848-7.386-7.742 0-4.569 3.381-7.594 7.03-7.594 4.45 0 7.06 2.936 7.06 7.505 0 .563-.06 1.038-.09 1.097h-10.56c.09 2.195 1.81 3.768 3.946 3.768 2.076 0 3.145-1.098 3.619-2.522zm75.311 16.033c-.06-1.69-1.186-3.204-3.56-3.204-2.165 0-3.41 1.662-3.53 3.204zm3.293 4.687c-.772 2.522-3.056 4.568-6.526 4.568-3.916 0-7.387-2.847-7.387-7.742 0-4.568 3.382-7.594 7.03-7.594 4.45 0 7.06 2.937 7.06 7.505 0 .564-.059 1.038-.088 1.098h-10.56c.089 2.195 1.81 3.767 3.945 3.767 2.076 0 3.144-1.098 3.62-2.521zM94.187 64.05h-3.44V49.604h3.351v1.928c.95-1.661 2.67-2.343 4.272-2.343 3.53 0 5.22 2.551 5.22 5.725v9.136h-3.44v-8.542c0-1.78-.801-3.204-2.967-3.204-1.958 0-2.996 1.512-2.996 3.411zM82.322 49.604h3.411v14.447h-3.411zm-8.099 6.764c0-2.462-1.572-4.064-3.708-4.064-2.194 0-3.766 1.602-3.766 4.064 0 2.52 1.512 4.093 3.766 4.093 2.196 0 3.708-1.602 3.708-4.093m-7.8 7.653c.236 1.78 1.63 3.114 3.618 3.114 2.729 0 4.094-1.394 4.094-4.33v-1.513c-.624 1.127-2.077 2.106-4.183 2.106-3.856 0-6.675-2.967-6.675-7.03 0-3.857 2.7-7.03 6.675-7.03 2.255 0 3.649.919 4.271 2.105v-1.839h3.323v13.082c0 3.856-1.988 7.446-7.416 7.446-3.827 0-6.496-2.374-6.882-5.28zm-16.287.03h-3.44V49.603h3.351v1.928c.95-1.661 2.67-2.343 4.272-2.343 3.53 0 5.22 2.551 5.22 5.725v9.136H56.1v-8.542c0-1.78-.8-3.204-2.966-3.204-1.958 0-2.997 1.512-2.997 3.411zM39.37 55.24c-.06-1.691-1.187-3.205-3.56-3.205-2.166 0-3.412 1.662-3.53 3.204zm3.292 4.686c-.771 2.522-3.055 4.568-6.526 4.568-3.916 0-7.386-2.847-7.386-7.742 0-4.568 3.381-7.594 7.03-7.594 4.45 0 7.06 2.937 7.06 7.505 0 .564-.06 1.038-.089 1.098H32.19c.089 2.194 1.81 3.767 3.945 3.767 2.077 0 3.145-1.098 3.619-2.521z" fill="#100f0d"/></svg>